<?xml version="1.0" encoding="UTF-8" standalone="no"?>
<!-- Created with Inkscape (http://www.inkscape.org/) -->

<svg
        xmlns:dc="http://purl.org/dc/elements/1.1/"
        xmlns:cc="http://creativecommons.org/ns#"
        xmlns:rdf="http://www.w3.org/1999/02/22-rdf-syntax-ns#"
        xmlns:svg="http://www.w3.org/2000/svg"
        xmlns="http://www.w3.org/2000/svg"
        xmlns:xlink="http://www.w3.org/1999/xlink"
        xmlns:sodipodi="http://sodipodi.sourceforge.net/DTD/sodipodi-0.dtd"
        xmlns:inkscape="http://www.inkscape.org/namespaces/inkscape"
        width="500"
        height="500"
        viewBox="0 0 132.29166 132.29167"
        version="1.1"
        id="svg5"
        inkscape:version="0.92.5 (2060ec1f9f, 2020-04-08)"
        sodipodi:docname="Extension.svg">
    <metadata
            id="metadata16">
        <rdf:RDF>
            <cc:Work
                    rdf:about="">
                <dc:format>image/svg+xml</dc:format>
                <dc:type
                        rdf:resource="http://purl.org/dc/dcmitype/StillImage" />
            </cc:Work>
        </rdf:RDF>
    </metadata>
    <sodipodi:namedview
            id="namedview7"
            pagecolor="#ffffff"
            bordercolor="#666666"
            borderopacity="1.0"
            inkscape:pageshadow="2"
            inkscape:pageopacity="0.0"
            inkscape:pagecheckerboard="0"
            inkscape:document-units="mm"
            showgrid="false"
            units="px"
            showguides="true"
            inkscape:guide-bbox="true"
            inkscape:zoom="0.52410025"
            inkscape:cx="-31.482527"
            inkscape:cy="42.930718"
            inkscape:window-width="1920"
            inkscape:window-height="1052"
            inkscape:window-x="1920"
            inkscape:window-y="130"
            inkscape:window-maximized="1"
            inkscape:current-layer="layer2">
        <sodipodi:guide
                position="66.133178,63.63432"
                orientation="1,0"
                id="guide9280"
                inkscape:locked="false" />
    </sodipodi:namedview>
    <defs
            id="defs2">
        <rect
                x="141.83661"
                y="295.62301"
                width="457.28541"
                height="162.30466"
                id="rect8226" />
    </defs>
    <g
            inkscape:groupmode="layer"
            id="layer3"
            inkscape:label="Ebene 3"
            sodipodi:insensitive="true">
        <circle
                style="fill:#ffffff;fill-opacity:1;fill-rule:evenodd;stroke-width:0.246262"
                id="path2278"
                cx="66.145836"
                cy="66.145836"
                r="66.145836" />
    </g>
    <g
            inkscape:groupmode="layer"
            id="layer2"
            inkscape:label="Ebene 2">
        <g
                id="g28"
                transform="translate(1.7473964,1.8663059)">
            <path
                    d="m 66.133179,31.349745 v 6.360705 c 0,6.013363 0.157871,6.360705 2.891204,6.360705 h 2.891247 v 20.238613 20.236376 h -2.891247 c -2.733203,0 -2.891204,0.347406 -2.891204,6.360714 v 6.360717 h 21.973356 21.971095 v -9.830228 -9.830145 h -6.36071 c -6.296145,0 -6.36072,0.0347 -6.36072,3.469427 0,3.434688 -0.06462,3.469515 -6.36067,3.469515 h -6.358509 v -6.938942 -6.93898 h 6.358509 6.36067 v -6.358454 -6.360709 h -6.36067 -6.358509 v -6.938958 -6.938946 h 6.358509 c 6.296131,0 6.36067,0.03513 6.36067,3.46948 0,3.434582 0.06462,3.469466 6.36072,3.469466 h 6.36071 V 41.17993 31.349745 H 88.106535 Z"
                    style="fill:#000000;stroke-width:0.30596963"
                    id="path924"
                    inkscape:connector-curvature="0" />
            <path
                    id="path1945"
                    style="fill:#000000;stroke-width:0.30596963"
                    d="M 24.168783,91.674828 18.719249,86.142069 V 64.16634 42.190554 l 5.53272,-5.449535 5.532764,-5.449534 h 8.676908 8.676907 l 5.449535,5.532764 c 4.21823,4.282635 5.449535,6.372905 5.449535,9.251358 v 3.718637 H 51.67729 c -6.013403,0 -6.360328,-0.157871 -6.360328,-2.89103 0,-2.762565 -0.308368,-2.891073 -6.93855,-2.891073 h -6.938507 v 20.237385 20.23737 h 6.938507 c 6.630182,0 6.93855,-0.128377 6.93855,-2.891068 0,-2.733337 0.346969,-2.891033 6.360328,-2.891033 h 6.360328 v 3.801823 c 0,3.009047 -1.153715,4.938229 -5.532764,9.251393 l -5.53272,5.449544 h -8.676908 -8.676908 z"
                    inkscape:connector-curvature="0" />
        </g>
    </g>
</svg>
